<svg width="101" height="111" viewBox="0 0 101 111" fill="none" xmlns="http://www.w3.org/2000/svg">
<path d="M8.6749 12.0847L15.9601 5.98754C19.3484 3.15187 24.3939 3.59982 27.2295 6.98806L94.9399 87.8927C97.7755 91.2809 97.3276 96.3264 93.9393 99.1621L86.6541 105.259C83.2658 108.095 78.2204 107.647 75.3847 104.259L7.67438 23.3541C4.83871 19.9658 5.28666 14.9203 8.6749 12.0847Z" fill="#ABABAB"/>
<path d="M86.7773 7.55547L93.9397 13.7964C97.2709 16.6989 97.6183 21.7523 94.7158 25.0835L25.4087 104.624C22.5061 107.956 17.4527 108.303 14.1216 105.401L6.95915 99.1596C3.62802 96.2571 3.28058 91.2037 6.18312 87.8725L75.4902 8.3315C78.3928 5.00037 83.4461 4.65293 86.7773 7.55547Z" fill="#ABABAB"/>
</svg>
