<svg width="100" height="111" viewBox="0 0 100 111" fill="none" xmlns="http://www.w3.org/2000/svg">
<path d="M8.11475 11.7018L15.4 5.60466C18.7882 2.769 23.8337 3.21694 26.6694 6.60518L94.3797 87.5098C97.2154 90.8981 96.7674 95.9435 93.3792 98.7792L86.0939 104.876C82.7057 107.712 77.6602 107.264 74.8246 103.876L7.11423 22.9712C4.27856 19.5829 4.72651 14.5375 8.11475 11.7018Z" fill="#FF1010"/>
<path d="M86.2171 7.1726L93.3796 13.4135C96.7107 16.3161 97.0582 21.3695 94.1556 24.7006L24.8485 104.242C21.946 107.573 16.8926 107.92 13.5615 105.018L6.39901 98.7767C3.06788 95.8742 2.72044 90.8208 5.62298 87.4897L74.9301 7.94863C77.8326 4.6175 82.886 4.27006 86.2171 7.1726Z" fill="#FF1010"/>
</svg>
